   <svg
          xmlns="http://www.w3.org/2000/svg"
          version="1.1"
          height="40px"
          x="0px"
          y="0px"
          viewBox="-247 370.9 100 125"
        >
          <g fill="white">
            <path d="M-147.4,399.1c-2.6-7.2-9.1-24.1-14.7-24.8c-5-0.6-20.3-2-24.4,3.8c-4.2-1.7-9.1-1.5-10.6-1.4c-1.5-0.1-6.1-0.3-10.2,1.2    c-4.3-5.7-19.4-4.3-24.3-3.7c-5.5,0.7-12.1,17.6-14.7,24.8l-0.2,0.7l13.8,36l1.4,0c0.1,0,6.8,0,12.9,1.2c-1.6,3.9-3.7,6.8-4.9,8.2    l-2.8,3.1l4.2,0.2c0.2,0,0.5,0,0.7,0c6.9,0,11.7-4.4,14.5-9.4c1.3,8.3,3.9,16.8,8.8,22.2c6.4,6.9,16.8,9.4,23.8,9.4v0    c0.1,0,0.1,0,0.2,0c3,0,5.2-3.3,5.2-7.6c0-4.4-2.2-7.6-5.2-7.6c-0.1,0-0.1,0-0.2,0l0-0.1c-4.8,0-8-0.9-9.8-2.8    c-2.3-2.4-2.8-6.7-2.8-12.4c2.9,4.6,7.5,8.4,14,8.4c0.2,0,0.5,0,0.7,0l4.2-0.2l-2.8-3.1c-1.2-1.4-3.2-4.3-4.9-8.2    c6.2-1.2,12.9-1.2,13-1.2c0,0,0,0,0,0l1.4,0l13.8-36L-147.4,399.1z M-230,431.8l-12.3-32.1c4-11,9.1-21,11.1-21.5    c8.4-1.1,17.7-0.6,20.3,1.7c-1.1,0.9-1.9,2-2.5,3.3c-1.6,3.7-3.5,9.5-4.8,14.2c-2.6,9.5-1.8,11.4-0.7,12.5l4.2,4.3l-4.7,15.3    l1.1,0.8c0.1,0.1,0.7,0.5,1.7,1.2c-0.1,0.5-0.3,1.1-0.4,1.6C-222.1,432.1-227.5,431.9-230,431.8z M-217.5,443.9    c1.7-2.9,3.4-6.5,4.4-10.3c1.2,0.6,2.4,1.2,3.8,1.7C-210.3,437.8-212.8,442.3-217.5,443.9z M-173.8,459.3c0.3,0.1,1.2,1.4,1.2,3.6    c0,2.2-0.9,3.5-1.2,3.6c-0.3-0.1-1.2-1.4-1.2-3.6C-175,460.7-174.1,459.4-173.8,459.3z M-178.3,459c-0.5,1.1-0.7,2.5-0.7,3.9    c0,1.2,0.2,2.3,0.5,3.3c-5.2-0.8-11.9-2.9-16.3-7.7c-11.2-12.2-8.9-44.3-8.8-44.6l-4-0.3c-0.1,0.7-0.6,8.6,0.2,18.1    c-3.1-1.1-5.9-2.8-7.3-3.7l4.6-14.9l-5.7-5.8c-0.5-2.5,3.1-15.2,6.2-22.5c1.8-4.2,9.6-4.4,12.6-4.1l0,0c0,0,0,0,0,0c0,0,0,0,0,0    l0,0c0.9-0.1,10.5-0.7,12.6,4.1c3.1,7.3,6.8,19.9,6.2,22.5l-5.7,5.8l4.6,14.9c-1.4,0.9-4,2.5-7.1,3.6c0.2-5.3,0.3-11.2-0.2-17.8    l-4,0.3c0.5,7.2,0.3,13.6,0.1,19.3c-0.3,10.1-0.6,17.5,3.7,21.9C-184.7,457.3-182,458.5-178.3,459z M-184.6,435.2    c1.4-0.5,2.7-1.1,3.8-1.8c1,3.9,2.7,7.5,4.5,10.4C-181.1,442.2-183.6,437.6-184.6,435.2z M-163.7,431.8c-2.5,0.1-7.9,0.3-13,1.3    c-0.2-0.6-0.3-1.2-0.5-1.8c0.9-0.6,1.4-1,1.4-1l1.1-0.8l-4.7-15.3l4.2-4.3c1-1,1.9-2.9-0.7-12.5c-1.5-5.5-3.6-11.2-4.8-14.2    c-0.5-1.3-1.3-2.3-2.3-3.1c2.3-2.5,11.9-3,20.4-1.9c2,0.5,7.2,10.5,11.2,21.5L-163.7,431.8z" />
            <path d="M-208.1,398.3c-2,0-3.5,1.6-3.5,3.5c0,2,1.6,3.5,3.5,3.5c2,0,3.5-1.6,3.5-3.5C-204.5,399.9-206.1,398.3-208.1,398.3z" />
            <path d="M-186.3,405.4c2,0,3.5-1.6,3.5-3.5c0-2-1.6-3.5-3.5-3.5c-2,0-3.5,1.6-3.5,3.5C-189.9,403.8-188.3,405.4-186.3,405.4z" />
          </g>
        </svg>
        